# xmcd
#
# Track frame offsets: 
#        150
#        12210
#        29722
#        44711
#        65231
#        87766
#        108124
#        126135
#        143685
#        163996
#        188671
#        203446
#
# Disc length: 2992 seconds
#
# Revision: 0
# Processed by: cddbd v1.5.2PL0 Copyright (c) Steve Scherf et al.
# Submitted via: ExactAudioCopy v0.99pb5
#
DISCID=a50bae0c
DTITLE=Bowerbirds - Hymns for a Dark Horse
DYEAR=1900
DGENRE=Blues
TTITLE0=Hooves
TTITLE1=Inour Talons
TTITLE2=Human Hands
TTITLE3=Dark Horse
TTITLE4=Bur Oak
TTITLE5=My oldest memory
TTITLE6=The marbled godwit
TTITLE7=Slow Down
TTITLE8=The Ticomderoga
TTITLE9=Olive Hearts
TTITLE10=La demigracion
TTITLE11=Matchstick maker
EXTD=
EXTT0=
EXTT1=
EXTT2=
EXTT3=
EXTT4=
EXTT5=
EXTT6=
EXTT7=
EXTT8=
EXTT9=
EXTT10=
EXTT11=
PLAYORDER=
